<?xml version="1.0" encoding="UTF-8" standalone="no"?>
<!-- Created with Inkscape (http://www.inkscape.org/) -->

<svg
   width="120mm"
   height="120mm"
   viewBox="0 0 120 120"
   version="1.1"
   id="svg5"
   xml:space="preserve"
   inkscape:version="1.2-beta (1b65182ce9, 2022-04-05)"
   sodipodi:docname="120_ldo_texture.svg"
   xmlns:inkscape="http://www.inkscape.org/namespaces/inkscape"
   xmlns:sodipodi="http://sodipodi.sourceforge.net/DTD/sodipodi-0.dtd"
   xmlns="http://www.w3.org/2000/svg"
   xmlns:svg="http://www.w3.org/2000/svg"><sodipodi:namedview
     id="namedview7"
     pagecolor="#ffffff"
     bordercolor="#666666"
     borderopacity="1.0"
     inkscape:pageshadow="2"
     inkscape:pageopacity="0.0"
     inkscape:pagecheckerboard="0"
     inkscape:deskcolor="#d1d1d1"
     inkscape:document-units="mm"
     showgrid="false"
     inkscape:zoom="1.5091049"
     inkscape:cx="126.89641"
     inkscape:cy="384.99642"
     inkscape:window-width="1920"
     inkscape:window-height="1027"
     inkscape:window-x="1912"
     inkscape:window-y="-8"
     inkscape:window-maximized="1"
     inkscape:current-layer="layer1" /><defs
     id="defs2"><marker
       id="DistanceX"
       orient="auto"
       refX="0"
       refY="0"
       style="overflow:visible"><path
         d="M 3,-3 -3,3 M 0,-5 V 5"
         style="stroke:#000000;stroke-width:0.5"
         id="path184" /></marker><pattern
       id="Hatch"
       patternUnits="userSpaceOnUse"
       width="8"
       height="8"
       x="0"
       y="0"><path
         d="M8 4 l-4,4"
         stroke="#000000"
         stroke-width="0.25"
         linecap="square"
         id="path187" /><path
         d="M6 2 l-4,4"
         stroke="#000000"
         stroke-width="0.25"
         linecap="square"
         id="path189" /><path
         d="M4 0 l-4,4"
         stroke="#000000"
         stroke-width="0.25"
         linecap="square"
         id="path191" /></pattern><symbol
       id="*Model_Space" /><symbol
       id="*Paper_Space" /><symbol
       id="*Paper_Space0" /><marker
       id="DistanceX-8"
       orient="auto"
       refX="0"
       refY="0"
       style="overflow:visible"><path
         d="M 3,-3 -3,3 M 0,-5 V 5"
         style="stroke:#000000;stroke-width:0.5"
         id="path781" /></marker><pattern
       id="Hatch-2"
       patternUnits="userSpaceOnUse"
       width="8"
       height="8"
       x="0"
       y="0"><path
         d="M8 4 l-4,4"
         stroke="#000000"
         stroke-width="0.25"
         linecap="square"
         id="path784" /><path
         d="M6 2 l-4,4"
         stroke="#000000"
         stroke-width="0.25"
         linecap="square"
         id="path786" /><path
         d="M4 0 l-4,4"
         stroke="#000000"
         stroke-width="0.25"
         linecap="square"
         id="path788" /></pattern><symbol
       id="*Model_Space-9" /><symbol
       id="*Paper_Space-7" /><symbol
       id="*Paper_Space0-7" /><marker
       id="DistanceX-3"
       orient="auto"
       refX="0"
       refY="0"
       style="overflow:visible"><path
         d="M 3,-3 -3,3 M 0,-5 V 5"
         style="stroke:#000000;stroke-width:0.5"
         id="path2541" /></marker><pattern
       id="Hatch-3"
       patternUnits="userSpaceOnUse"
       width="8"
       height="8"
       x="0"
       y="0"><path
         d="M8 4 l-4,4"
         stroke="#000000"
         stroke-width="0.25"
         linecap="square"
         id="path2544" /><path
         d="M6 2 l-4,4"
         stroke="#000000"
         stroke-width="0.25"
         linecap="square"
         id="path2546" /><path
         d="M4 0 l-4,4"
         stroke="#000000"
         stroke-width="0.25"
         linecap="square"
         id="path2548" /></pattern><symbol
       id="*Model_Space-2" /><symbol
       id="*Paper_Space-1" /><symbol
       id="*Paper_Space0-8" /><pattern
       y="0"
       x="0"
       height="6"
       width="6"
       patternUnits="userSpaceOnUse"
       id="EMFhbasepattern" /><pattern
       y="0"
       x="0"
       height="6"
       width="6"
       patternUnits="userSpaceOnUse"
       id="EMFhbasepattern-6" /><pattern
       y="0"
       x="0"
       height="6"
       width="6"
       patternUnits="userSpaceOnUse"
       id="EMFhbasepattern-4" /><pattern
       y="0"
       x="0"
       height="6"
       width="6"
       patternUnits="userSpaceOnUse"
       id="EMFhbasepattern-6-1" /><marker
       id="DistanceX-33"
       orient="auto"
       refX="0.0"
       refY="0.0"
       style="overflow:visible"><path
         d="M 3,-3 L -3,3 M 0,-5 L  0,5"
         style="stroke:#000000; stroke-width:0.5"
         id="path450" /></marker><pattern
       id="Hatch-5"
       patternUnits="userSpaceOnUse"
       width="8"
       height="8"
       x="0"
       y="0"><path
         d="M8 4 l-4,4"
         stroke="#000000"
         stroke-width="0.25"
         linecap="square"
         id="path453" /><path
         d="M6 2 l-4,4"
         stroke="#000000"
         stroke-width="0.25"
         linecap="square"
         id="path455" /><path
         d="M4 0 l-4,4"
         stroke="#000000"
         stroke-width="0.25"
         linecap="square"
         id="path457" /></pattern><symbol
       id="*MODEL_SPACE" /><symbol
       id="*PAPER_SPACE" /><symbol
       id="*PAPER_SPACE0" /></defs><g
     inkscape:label="Layer 1"
     inkscape:groupmode="layer"
     id="layer1"><g
       id="g589"
       style="stroke-width:7.55906;stroke-dasharray:none"
       transform="matrix(0.26458333,0,0,0.26458333,0.13229166,-176.86761)"><path
         style="fill:none;stroke:#b3b3b3;stroke-width:2;stroke-dasharray:none"
         d="M 0,1122.52 H 453.543"
         id="path465" /><path
         style="fill:none;stroke:#b3b3b3;stroke-width:2;stroke-dasharray:none"
         d="M 0,668.976 V 1122.52"
         id="path467" /><path
         style="fill:none;stroke:#b3b3b3;stroke-width:2;stroke-dasharray:none"
         d="M 453.543,668.976 V 1122.52"
         id="path469" /><path
         style="fill:none;stroke:#b3b3b3;stroke-width:2;stroke-dasharray:none"
         d="M 0,668.976 H 453.543"
         id="path471" /><path
         style="fill:none;stroke:#b3b3b3;stroke-width:2;stroke-dasharray:none"
         d="M 0,895.748 H 453.543"
         id="path473" /><path
         style="fill:none;stroke:#b3b3b3;stroke-width:0.529167;stroke-dasharray:none"
         d="m 0.13229166,110.13122 44.06488834,0"
         id="path485"
         transform="matrix(3.7795276,0,0,3.7795276,-0.49999998,668.47601)"
         sodipodi:nodetypes="cc" /><path
         style="fill:none;stroke:#b3b3b3;stroke-width:0.52916667;stroke-dasharray:none"
         d="M 0.13229166,10.132479 H 120.13221"
         id="path495"
         transform="matrix(3.7795276,0,0,3.7795276,-0.49999998,668.47601)" /><path
         style="fill:none;stroke:#b3b3b3;stroke-width:0.52916667;stroke-dasharray:none"
         d="M 110.13228,0.13228777 V 120.13247"
         id="path505"
         transform="matrix(3.7795276,0,0,3.7795276,-0.49999998,668.47601)" /><path
         style="fill:none;stroke:#b3b3b3;stroke-width:0.52916667;stroke-dasharray:none"
         d="M 10.132298,0.13228777 V 120.13247"
         id="path515"
         transform="matrix(3.7795276,0,0,3.7795276,-0.49999998,668.47601)" /><path
         style="fill:none;stroke:#b3b3b3;stroke-width:2;stroke-dasharray:none"
         d="m 226.772,668.976 v 404.1109"
         id="path475"
         sodipodi:nodetypes="cc" /></g><path
       style="fill:none;stroke:#b3b3b3;stroke-width:0.132292;stroke-dasharray:none"
       d="M 0.13229166,70.132306 H 120.13221"
       id="path477" /><path
       style="fill:none;stroke:#b3b3b3;stroke-width:0.132292;stroke-dasharray:none"
       d="M 0.13229166,80.132497 H 120.13221"
       id="path479" /><path
       style="fill:none;stroke:#b3b3b3;stroke-width:0.132292;stroke-dasharray:none"
       d="M 0.13229166,90.131366 H 120.13221"
       id="path481" /><path
       style="fill:none;stroke:#b3b3b3;stroke-width:0.132292;stroke-dasharray:none"
       d="M 0.13229166,100.13262 H 120.13221"
       id="path483" /><path
       style="fill:none;stroke:#b3b3b3;stroke-width:0.132292;stroke-dasharray:none"
       d="M 0.13229166,50.132452 H 120.13221"
       id="path487" /><path
       style="fill:none;stroke:#b3b3b3;stroke-width:0.132292;stroke-dasharray:none"
       d="M 0.13229166,40.13226 H 120.13221"
       id="path489" /><path
       style="fill:none;stroke:#b3b3b3;stroke-width:0.132292;stroke-dasharray:none"
       d="M 0.13229166,30.132333 H 120.13221"
       id="path491" /><path
       style="fill:none;stroke:#b3b3b3;stroke-width:0.132292;stroke-dasharray:none"
       d="M 0.13229166,20.132406 H 120.13221"
       id="path493" /><path
       style="fill:none;stroke:#b3b3b3;stroke-width:0.132292;stroke-dasharray:none"
       d="M 70.13231,0.13228777 V 107.05329"
       id="path497"
       sodipodi:nodetypes="cc" /><path
       style="fill:none;stroke:#b3b3b3;stroke-width:0.132292;stroke-dasharray:none"
       d="M 80.132236,0.13228777 V 120.13247"
       id="path499" /><path
       style="fill:none;stroke:#b3b3b3;stroke-width:0.132292;stroke-dasharray:none"
       d="M 90.132163,0.13228777 V 120.13247"
       id="path501" /><path
       style="fill:none;stroke:#b3b3b3;stroke-width:0.132292;stroke-dasharray:none"
       d="M 100.13235,0.13228777 V 120.13247"
       id="path503" /><path
       style="fill:none;stroke:#b3b3b3;stroke-width:0.132292;stroke-dasharray:none"
       d="m 50.132191,0.13228777 0,106.92100223"
       id="path507"
       sodipodi:nodetypes="cc" /><path
       style="fill:none;stroke:#b3b3b3;stroke-width:0.132292;stroke-dasharray:none"
       d="M 40.132264,0.13228777 V 120.13247"
       id="path509" /><path
       style="fill:none;stroke:#b3b3b3;stroke-width:0.132292;stroke-dasharray:none"
       d="M 30.132337,0.13228777 V 120.13247"
       id="path511" /><path
       style="fill:none;stroke:#b3b3b3;stroke-width:0.132292;stroke-dasharray:none"
       d="M 20.132304,0.13228777 V 120.13247"
       id="path513" /><path
       style="display:inline;fill:#d40000;fill-opacity:1;stroke:none;stroke-width:2.11362;stroke-linecap:round;stroke-linejoin:round;stroke-miterlimit:4;stroke-dasharray:none;stroke-dashoffset:0;stroke-opacity:1"
       d="m 73.719471,109.02663 -2.07854,0.002 -5.67502,8.36113 h 2.07089 z m -5.89374,0.002 -2.83956,4.17319 h 2.07116 l 2.82728,-4.16772 z m 4.80286,4.16173 -2.83955,4.17345 h 2.07089 l 2.82727,-4.16772 z"
       id="rect812"
       inkscape:connector-curvature="0"
       inkscape:label="VORON_LOGO" /><path
       style="fill:#336799;fill-opacity:1;fill-rule:nonzero;stroke:none;stroke-width:0.0400814;stroke-linecap:butt;stroke-linejoin:miter;stroke-miterlimit:10;stroke-dasharray:none;stroke-dashoffset:0;stroke-opacity:1"
       d="m 46.226231,108.9256 v 0.76991 l 1.93994,1.98418 c 0.22797,-0.35583 0.53082,-0.65764 0.88743,-0.88438 l -0.58838,-0.6146 4.30206,-0.0373 1.15774,1.15978 -0.003,4.47735 -0.91005,-0.90269 c -0.23133,0.34049 -0.53237,0.62792 -0.88319,0.84326 l 1.73515,1.76999 1.31354,-3.8e-4 9.7e-4,-6.69886 -1.82878,-1.86597 z m 0.004,1.32142 -9.6e-4,5.37637 1.82338,1.86681 5.24273,-0.005 -1.14803,-1.25309 h -3.54381 l -1.1204,-1.11859 v -3.61826 z m 4.37702,0.55033 c -1.35396,2e-5 -2.45156,1.09764 -2.45153,2.4516 2e-5,1.35394 1.09759,2.45152 2.45153,2.45154 1.35393,-2e-5 2.45151,-1.09759 2.45152,-2.45153 3e-5,-1.35396 -1.09756,-2.45159 -2.45152,-2.45161 z m 0,1.20455 c 0.68873,-1e-5 1.24707,0.55832 1.24706,1.24705 -3e-5,0.68872 -0.55836,1.24701 -1.24706,1.24699 -0.68871,2e-5 -1.24703,-0.55827 -1.24706,-1.24699 -1e-5,-0.68873 0.55833,-1.24706 1.24706,-1.24705 z"
       id="rect829"
       inkscape:connector-curvature="0"
       sodipodi:nodetypes="cccccccccccccccccccccccccccccccccc"
       inkscape:label="LDO_LOGO" /><path
       id="rect5300"
       style="opacity:0.8;fill:#b3b3b3;stroke:#b3b3b3;stroke-width:0.0499018;stroke-linecap:round;stroke-dasharray:none"
       d="m 57.977621,111.96706 1.26614,1.26615 -1.26628,1.26628 0.88848,0.88848 1.26629,-1.26628 1.26628,1.26629 0.88849,-0.88849 -1.26629,-1.26629 1.26629,-1.26628 -0.88849,-0.88848 -1.26628,1.26629 -1.26615,-1.26616 z"
       inkscape:label="CROSS" /><path
       style="fill:none;stroke:#b3b3b3;stroke-width:0.529167;stroke-dasharray:none"
       d="M 75.947182,110.13122 H 120"
       id="path485-4"
       sodipodi:nodetypes="cc" /></g></svg>
